<?xml version="1.0" encoding="utf-8"?>
<!-- Generator: Adobe Illustrator 25.2.1, SVG Export Plug-In . SVG Version: 6.00 Build 0)  -->
<svg version="1.1" id="Layer_1" xmlns="http://www.w3.org/2000/svg" xmlns:xlink="http://www.w3.org/1999/xlink" x="0px" y="0px"
	 viewBox="0 0 21 20" style="enable-background:new 0 0 21 20;" xml:space="preserve">
<style type="text/css">
	.st0{clip-path:url(#SVGID_2_);}
	.st1{fill:#FFFFFF;}
</style>
<g>
	<defs>
		<rect id="SVGID_1_" x="0.3" width="20" height="20"/>
	</defs>
	<clipPath id="SVGID_2_">
		<use xlink:href="#SVGID_1_"  style="overflow:visible;"/>
	</clipPath>
	<g class="st0">
		<path class="st1" d="M6.6,18.8c0.7,0,1.2-0.6,1.2-1.2s-0.6-1.2-1.2-1.2s-1.2,0.6-1.2,1.2S5.9,18.8,6.6,18.8z M15.3,18.8
			c0.7,0,1.2-0.6,1.2-1.2s-0.6-1.2-1.2-1.2c-0.7,0-1.2,0.6-1.2,1.2S14.6,18.8,15.3,18.8z M3.4,1.8C3.4,1.5,3.1,1.2,2.8,1.2H0.3v1.2
			h2l2.4,12C4.8,14.8,5,15,5.3,15h11.2v-1.2H5.8l-0.5-2.5h11.2c0.3,0,0.5-0.2,0.6-0.5l1.4-6.4h-1.3L16.1,10h-11
			C5.1,10,3.4,1.8,3.4,1.8z"/>
		<path class="st1" d="M11.6,3.8V1.2h-1.2v2.5H7.8V5h2.5v2.5h1.2V5h2.5V3.8H11.6z"/>
	</g>
</g>
</svg>
